<svg id="Layer_1" data-name="Layer 1" xmlns="http://www.w3.org/2000/svg" viewBox="0 0 446.85 87.91"><defs><style>.cls-1{fill:#003a70;}.cls-2{fill:#6ba43a;}</style></defs><polygon class="cls-1" points="398.21 16.59 398.21 16.31 383.78 1.22 379.86 0.61 397.84 16.57 398.21 16.59"/><path class="cls-1" d="M406.86,56.83l-.27-21.26-19.4-17.22v4c3.35,4.48,8.94,9.33,8.62,23.28a34,34,0,0,1-2.14,11.2Z" transform="translate(-8.82 -12.53)"/><polygon class="cls-1" points="378.38 70.33 378.38 87.72 398.11 87.72 398.11 70.32 378.38 70.33"/><path class="cls-1" d="M340.79,56.83V29.53h10.13c12.08,0,19,5.71,19,15.66a16.35,16.35,0,0,1-4.5,11.64h22a33.86,33.86,0,0,0,2.13-12c0-20.09-14-32.09-37.47-32.09H321V56.83Z" transform="translate(-8.82 -12.53)"/><polygon class="cls-1" points="312.22 70.36 312.22 74.25 316.83 87.73 331.97 87.73 331.97 70.35 312.22 70.36"/><path class="cls-2" d="M74,71.6A25.18,25.18,0,0,1,27.72,57.07a25.71,25.71,0,0,1,25.2-25.8C66.39,31.27,74.31,41,77,48.72H45.71V66.19H96.33s1.14-1.94,1-9.29C96.9,29.54,74.43,13.7,52.92,13.7c-24.32,0-44.1,19.48-44.1,43.43s19.78,43.32,44.1,43.32c32.51,0,42-28.85,42-28.85Z" transform="translate(-8.82 -12.53)"/><path class="cls-1" d="M163.66,12.72H71.74l7.18,3.61a51,51,0,0,1,16,14.26l.57.78h21l1.79,68.83H139.5L139,31.64h24.67Z" transform="translate(-8.82 -12.53)"/><path class="cls-1" d="M237.83,45.87c0-19.63-14.64-33.34-35.62-33.34H169.54V100.4h21.6V78.05h8.72l19.57,22.35h11.38l4.93-14.05L223.25,74.24C232,69.27,237.83,58.1,237.83,45.87Zm-18.55.25c0,7.79-5.37,15.66-17.39,15.66H191.14V29.59h10.75C213.91,29.59,219.28,37.89,219.28,46.12Z" transform="translate(-8.82 -12.53)"/><path class="cls-2" d="M455.66,45c0-19-12.25-32.07-37.45-32.07H388.44l17.36,15.4.8.66h10.33c14.14,0,19.39,7.26,19.39,15.89,0,9-6,17-19.39,17h-11.2L274.25,62l-4.88,15.81L418,77.92C441.81,77.92,455.66,63.58,455.66,45Z" transform="translate(-8.82 -12.53)"/><polygon class="cls-1" points="253.55 70.38 261.9 44.29 261.92 44.29 262.78 41.5 262.89 41.53 269.08 20.38 276.19 44.29 295.64 44.29 280.49 0.26 258.18 0.26 228.09 87.72 248.49 87.72 253.83 70.38 253.55 70.38"/><polygon class="cls-1" points="284.32 70.37 289.67 87.72 310.58 87.72 304.61 70.36 284.32 70.37"/></svg>